<svg width="60" height="60" viewBox="0 0 60 60" fill="none" xmlns="http://www.w3.org/2000/svg">
<path d="M23 52.9999H18V56.9999H23V52.9999ZM23 52.9999H28V37.9999H33V52.9999H38V37.9999H43V32.9999H18V37.9999H23V52.9999ZM3 52.9999H13V47.9999H3V52.9999ZM13 47.9999H18V37.9999H13V47.9999ZM38 56.9999H43V52.9999H38V56.9999ZM13 32.9999H18V7.99988H13V32.9999ZM43 47.9999H48V37.9999H43V47.9999ZM48 52.9999H57V47.9999H48V52.9999ZM23 27.9999H28V17.9999H23V27.9999ZM33 27.9999H38V17.9999H33V27.9999ZM18 7.99988H43V2.99988H18V7.99988ZM43 32.9999H48V7.99988H43V32.9999Z" fill="#FF5C34"/>
</svg>
