<svg width="60" height="60" viewBox="0 0 60 60" fill="none" xmlns="http://www.w3.org/2000/svg">
<path d="M3 32.4545H7.90909V22.6364H17.7273V32.4545H22.6364V22.6364H37.3636V32.4545H42.2727V22.6364H52.0909V32.4545H57V12.8182H52.0909V17.7273H42.2727V12.8182H37.3636V17.7273H22.6364V12.8182H17.7273V17.7273H7.90909V12.8182H3V32.4545ZM7.90909 37.3636H12.8182V32.4545H7.90909V37.3636ZM12.8182 42.2727H17.7273V37.3636H12.8182V42.2727ZM17.7273 47.1818H22.6364V42.2727H17.7273V47.1818ZM27.5455 57H32.4545V52.0909H37.3636V47.1818H32.4545V42.2727H27.5455V47.1818H22.6364V52.0909H27.5455V57ZM22.6364 42.2727H27.5455V32.4545H22.6364V42.2727ZM37.3636 47.1818H42.2727V42.2727H37.3636V47.1818ZM32.4545 42.2727H37.3636V32.4545H32.4545V42.2727ZM7.90909 12.8182H12.8182V7.90909H7.90909V12.8182ZM42.2727 42.2727H47.1818V37.3636H42.2727V42.2727ZM47.1818 37.3636H52.0909V32.4545H47.1818V37.3636ZM22.6364 12.8182H27.5455V7.90909H32.4545V12.8182H37.3636V7.90909H47.1818V3H12.8182V7.90909H22.6364V12.8182ZM47.1818 12.8182H52.0909V7.90909H47.1818V12.8182Z" fill="#1A66FF"/>
</svg>
